<mxfile host="65bd71144e">
    <diagram id="pxi6slwN2eOfk0Qc9boM" name="第 1 页">
        <mxGraphModel dx="1253" dy="714" grid="0" gridSize="10" guides="1" tooltips="1" connect="1" arrows="1" fold="1" page="1" pageScale="1" pageWidth="3300" pageHeight="4681" background="#ffffff" math="0" shadow="0">
            <root>
                <mxCell id="0"/>
                <mxCell id="1" parent="0"/>
                <mxCell id="68" value="" style="rounded=0;whiteSpace=wrap;html=1;fontSize=22;fontColor=#FF6666;fillColor=none;strokeColor=#1BA1E2;strokeWidth=4;" vertex="1" parent="1">
                    <mxGeometry x="173" y="1200" width="685" height="60" as="geometry"/>
                </mxCell>
                <mxCell id="3" value="&lt;font size=&quot;1&quot;&gt;&lt;b style=&quot;font-size: 35px;&quot;&gt;(2,8,16,80)&lt;/b&gt;&lt;/font&gt;" style="text;html=1;align=center;verticalAlign=middle;resizable=0;points=[];autosize=1;strokeColor=none;fillColor=none;fontColor=#000000;" parent="1" vertex="1">
                    <mxGeometry x="94" y="163" width="187" height="54" as="geometry"/>
                </mxCell>
                <mxCell id="5" value="&lt;font size=&quot;1&quot;&gt;&lt;b style=&quot;font-size: 35px;&quot;&gt;(2,8,16,80)&lt;/b&gt;&lt;/font&gt;" style="text;html=1;align=center;verticalAlign=middle;resizable=0;points=[];autosize=1;strokeColor=none;fillColor=none;fontColor=#000000;" parent="1" vertex="1">
                    <mxGeometry x="304" y="163" width="187" height="54" as="geometry"/>
                </mxCell>
                <mxCell id="6" value="" style="endArrow=classic;html=1;fontSize=35;fontColor=#000000;strokeColor=#000000;strokeWidth=5;" parent="1" edge="1">
                    <mxGeometry width="50" height="50" relative="1" as="geometry">
                        <mxPoint x="498" y="189.5" as="sourcePoint"/>
                        <mxPoint x="593" y="189.5" as="targetPoint"/>
                    </mxGeometry>
                </mxCell>
                <mxCell id="7" value="&lt;font size=&quot;1&quot;&gt;&lt;b style=&quot;font-size: 35px;&quot;&gt;(2,8,16,16)&lt;/b&gt;&lt;/font&gt;" style="text;html=1;align=center;verticalAlign=middle;resizable=0;points=[];autosize=1;strokeColor=none;fillColor=none;fontColor=#000000;" parent="1" vertex="1">
                    <mxGeometry x="606" y="161" width="187" height="54" as="geometry"/>
                </mxCell>
                <mxCell id="8" value="&lt;span style=&quot;font-size: 35px;&quot;&gt;&lt;b&gt;&amp;nbsp; &amp;nbsp; i&amp;nbsp; j&amp;nbsp; k&amp;nbsp; m&lt;/b&gt;&lt;/span&gt;" style="text;html=1;align=center;verticalAlign=middle;resizable=0;points=[];autosize=1;strokeColor=none;fillColor=none;fontColor=#000000;" parent="1" vertex="1">
                    <mxGeometry x="75" y="215" width="185" height="54" as="geometry"/>
                </mxCell>
                <mxCell id="9" value="&lt;span style=&quot;font-size: 35px;&quot;&gt;&lt;b&gt;&amp;nbsp; &amp;nbsp; i&amp;nbsp; j&amp;nbsp; l&amp;nbsp; m&lt;/b&gt;&lt;/span&gt;" style="text;html=1;align=center;verticalAlign=middle;resizable=0;points=[];autosize=1;strokeColor=none;fillColor=none;fontColor=#000000;" parent="1" vertex="1">
                    <mxGeometry x="292" y="217" width="176" height="54" as="geometry"/>
                </mxCell>
                <mxCell id="10" value="&lt;span style=&quot;font-size: 35px;&quot;&gt;&lt;b&gt;&amp;nbsp; &amp;nbsp; i&amp;nbsp; j&amp;nbsp; k&amp;nbsp; l&lt;/b&gt;&lt;/span&gt;" style="text;html=1;align=center;verticalAlign=middle;resizable=0;points=[];autosize=1;strokeColor=none;fillColor=none;fontColor=#000000;" parent="1" vertex="1">
                    <mxGeometry x="601" y="215" width="164" height="54" as="geometry"/>
                </mxCell>
                <mxCell id="11" value="" style="endArrow=classic;html=1;fontSize=35;fontColor=#000000;strokeColor=#000000;strokeWidth=5;" parent="1" edge="1">
                    <mxGeometry width="50" height="50" relative="1" as="geometry">
                        <mxPoint x="506" y="243.5" as="sourcePoint"/>
                        <mxPoint x="601" y="243.5" as="targetPoint"/>
                    </mxGeometry>
                </mxCell>
                <mxCell id="12" value="&lt;span style=&quot;font-size: 35px;&quot;&gt;&lt;b&gt;,&lt;/b&gt;&lt;/span&gt;" style="text;html=1;align=center;verticalAlign=middle;resizable=0;points=[];autosize=1;strokeColor=none;fillColor=none;fontColor=#000000;" parent="1" vertex="1">
                    <mxGeometry x="276" y="217" width="28" height="54" as="geometry"/>
                </mxCell>
                <mxCell id="13" value="&lt;font color=&quot;#ff6666&quot; style=&quot;font-size: 22px;&quot;&gt;原先CHW的equation&lt;/font&gt;" style="text;html=1;align=center;verticalAlign=middle;resizable=0;points=[];autosize=1;strokeColor=none;fillColor=none;fontColor=#000000;" parent="1" vertex="1">
                    <mxGeometry x="98" y="125" width="221" height="38" as="geometry"/>
                </mxCell>
                <mxCell id="14" value="&lt;font color=&quot;#ff6666&quot;&gt;&lt;span style=&quot;font-size: 22px;&quot;&gt;channel-last要求将c移动到最后一维&lt;/span&gt;&lt;/font&gt;" style="text;html=1;align=left;verticalAlign=middle;resizable=0;points=[];autosize=1;strokeColor=none;fillColor=none;fontColor=#000000;" parent="1" vertex="1">
                    <mxGeometry x="98" y="271" width="368" height="38" as="geometry"/>
                </mxCell>
                <mxCell id="15" value="&lt;font size=&quot;1&quot;&gt;&lt;b style=&quot;font-size: 35px;&quot;&gt;(2,16,80,8)&lt;/b&gt;&lt;/font&gt;" style="text;html=1;align=center;verticalAlign=middle;resizable=0;points=[];autosize=1;strokeColor=none;fillColor=none;fontColor=#000000;" parent="1" vertex="1">
                    <mxGeometry x="94" y="311" width="187" height="54" as="geometry"/>
                </mxCell>
                <mxCell id="16" value="&lt;font size=&quot;1&quot;&gt;&lt;b style=&quot;font-size: 35px;&quot;&gt;(2,16,80,8)&lt;/b&gt;&lt;/font&gt;" style="text;html=1;align=center;verticalAlign=middle;resizable=0;points=[];autosize=1;strokeColor=none;fillColor=none;fontColor=#000000;" parent="1" vertex="1">
                    <mxGeometry x="304" y="311" width="187" height="54" as="geometry"/>
                </mxCell>
                <mxCell id="17" value="" style="endArrow=classic;html=1;fontSize=35;fontColor=#000000;strokeColor=#000000;strokeWidth=5;" parent="1" edge="1">
                    <mxGeometry width="50" height="50" relative="1" as="geometry">
                        <mxPoint x="498" y="337.5" as="sourcePoint"/>
                        <mxPoint x="593" y="337.5" as="targetPoint"/>
                    </mxGeometry>
                </mxCell>
                <mxCell id="18" value="&lt;font size=&quot;1&quot;&gt;&lt;b style=&quot;font-size: 35px;&quot;&gt;(2,16,16,8)&lt;/b&gt;&lt;/font&gt;" style="text;html=1;align=center;verticalAlign=middle;resizable=0;points=[];autosize=1;strokeColor=none;fillColor=none;fontColor=#000000;" parent="1" vertex="1">
                    <mxGeometry x="606" y="309" width="187" height="54" as="geometry"/>
                </mxCell>
                <mxCell id="19" value="&lt;span style=&quot;font-size: 35px;&quot;&gt;&lt;b&gt;&amp;nbsp; &amp;nbsp; i&amp;nbsp; k&amp;nbsp; m&amp;nbsp; j&lt;/b&gt;&lt;/span&gt;" style="text;html=1;align=center;verticalAlign=middle;resizable=0;points=[];autosize=1;strokeColor=none;fillColor=none;fontColor=#000000;" parent="1" vertex="1">
                    <mxGeometry x="75" y="363" width="185" height="54" as="geometry"/>
                </mxCell>
                <mxCell id="20" value="&lt;span style=&quot;font-size: 35px;&quot;&gt;&lt;b&gt;&amp;nbsp; &amp;nbsp; i&amp;nbsp; l&amp;nbsp; m&amp;nbsp; j&lt;/b&gt;&lt;/span&gt;" style="text;html=1;align=center;verticalAlign=middle;resizable=0;points=[];autosize=1;strokeColor=none;fillColor=none;fontColor=#000000;" parent="1" vertex="1">
                    <mxGeometry x="292" y="365" width="176" height="54" as="geometry"/>
                </mxCell>
                <mxCell id="21" value="&lt;span style=&quot;font-size: 35px;&quot;&gt;&lt;b&gt;&amp;nbsp; &amp;nbsp; i&amp;nbsp; k&amp;nbsp; l&amp;nbsp; j&lt;/b&gt;&lt;/span&gt;" style="text;html=1;align=center;verticalAlign=middle;resizable=0;points=[];autosize=1;strokeColor=none;fillColor=none;fontColor=#000000;" parent="1" vertex="1">
                    <mxGeometry x="601" y="363" width="164" height="54" as="geometry"/>
                </mxCell>
                <mxCell id="22" value="" style="endArrow=classic;html=1;fontSize=35;fontColor=#000000;strokeColor=#000000;strokeWidth=5;" parent="1" edge="1">
                    <mxGeometry width="50" height="50" relative="1" as="geometry">
                        <mxPoint x="506" y="391.5" as="sourcePoint"/>
                        <mxPoint x="601" y="391.5" as="targetPoint"/>
                    </mxGeometry>
                </mxCell>
                <mxCell id="23" value="&lt;span style=&quot;font-size: 35px;&quot;&gt;&lt;b&gt;,&lt;/b&gt;&lt;/span&gt;" style="text;html=1;align=center;verticalAlign=middle;resizable=0;points=[];autosize=1;strokeColor=none;fillColor=none;fontColor=#000000;" parent="1" vertex="1">
                    <mxGeometry x="276" y="365" width="28" height="54" as="geometry"/>
                </mxCell>
                <mxCell id="24" value="&lt;font color=&quot;#ff6666&quot;&gt;&lt;span style=&quot;font-size: 22px;&quot;&gt;因为目前实现的einsum算子要求箭头右边的字符串必须为ijkl，因此再做变换&lt;/span&gt;&lt;/font&gt;" style="text;html=1;align=left;verticalAlign=middle;resizable=0;points=[];autosize=1;strokeColor=none;fillColor=none;fontColor=#000000;" parent="1" vertex="1">
                    <mxGeometry x="98" y="430" width="753" height="38" as="geometry"/>
                </mxCell>
                <mxCell id="25" value="&lt;span style=&quot;font-size: 35px;&quot;&gt;&lt;b&gt;&amp;nbsp; &amp;nbsp; i&amp;nbsp; k&amp;nbsp; m&amp;nbsp; j&lt;/b&gt;&lt;/span&gt;" style="text;html=1;align=center;verticalAlign=middle;resizable=0;points=[];autosize=1;strokeColor=none;fillColor=none;fontColor=#000000;" parent="1" vertex="1">
                    <mxGeometry x="75" y="471" width="185" height="54" as="geometry"/>
                </mxCell>
                <mxCell id="26" value="&lt;span style=&quot;font-size: 35px;&quot;&gt;&lt;b&gt;&amp;nbsp; &amp;nbsp; i&amp;nbsp; l&amp;nbsp; m&amp;nbsp; j&lt;/b&gt;&lt;/span&gt;" style="text;html=1;align=center;verticalAlign=middle;resizable=0;points=[];autosize=1;strokeColor=none;fillColor=none;fontColor=#000000;" parent="1" vertex="1">
                    <mxGeometry x="292" y="473" width="176" height="54" as="geometry"/>
                </mxCell>
                <mxCell id="27" value="&lt;span style=&quot;font-size: 35px;&quot;&gt;&lt;b&gt;&amp;nbsp; &amp;nbsp; i&amp;nbsp; k&amp;nbsp; l&amp;nbsp; j&lt;/b&gt;&lt;/span&gt;" style="text;html=1;align=center;verticalAlign=middle;resizable=0;points=[];autosize=1;strokeColor=none;fillColor=none;fontColor=#000000;" parent="1" vertex="1">
                    <mxGeometry x="601" y="471" width="164" height="54" as="geometry"/>
                </mxCell>
                <mxCell id="28" value="" style="endArrow=classic;html=1;fontSize=35;fontColor=#000000;strokeColor=#000000;strokeWidth=5;" parent="1" edge="1">
                    <mxGeometry width="50" height="50" relative="1" as="geometry">
                        <mxPoint x="506" y="499.5" as="sourcePoint"/>
                        <mxPoint x="601" y="499.5" as="targetPoint"/>
                    </mxGeometry>
                </mxCell>
                <mxCell id="29" value="&lt;span style=&quot;font-size: 35px;&quot;&gt;&lt;b&gt;,&lt;/b&gt;&lt;/span&gt;" style="text;html=1;align=center;verticalAlign=middle;resizable=0;points=[];autosize=1;strokeColor=none;fillColor=none;fontColor=#000000;" parent="1" vertex="1">
                    <mxGeometry x="276" y="473" width="28" height="54" as="geometry"/>
                </mxCell>
                <mxCell id="30" value="&lt;span style=&quot;font-size: 35px;&quot;&gt;&lt;b&gt;&amp;nbsp; &amp;nbsp; i&amp;nbsp; j&amp;nbsp; m&amp;nbsp; l&lt;/b&gt;&lt;/span&gt;" style="text;html=1;align=center;verticalAlign=middle;resizable=0;points=[];autosize=1;strokeColor=none;fillColor=none;fontColor=#000000;" parent="1" vertex="1">
                    <mxGeometry x="80" y="533" width="176" height="54" as="geometry"/>
                </mxCell>
                <mxCell id="31" value="&lt;span style=&quot;font-size: 35px;&quot;&gt;&lt;b&gt;&amp;nbsp; &amp;nbsp; i&amp;nbsp; k&amp;nbsp; m&amp;nbsp; l&lt;/b&gt;&lt;/span&gt;" style="text;html=1;align=center;verticalAlign=middle;resizable=0;points=[];autosize=1;strokeColor=none;fillColor=none;fontColor=#000000;" parent="1" vertex="1">
                    <mxGeometry x="288" y="535" width="185" height="54" as="geometry"/>
                </mxCell>
                <mxCell id="32" value="&lt;span style=&quot;font-size: 35px;&quot;&gt;&lt;b&gt;&amp;nbsp; &amp;nbsp; i&amp;nbsp; j&amp;nbsp; k&amp;nbsp; l&lt;/b&gt;&lt;/span&gt;" style="text;html=1;align=center;verticalAlign=middle;resizable=0;points=[];autosize=1;strokeColor=none;fillColor=none;fontColor=#000000;" parent="1" vertex="1">
                    <mxGeometry x="601" y="533" width="164" height="54" as="geometry"/>
                </mxCell>
                <mxCell id="33" value="" style="endArrow=classic;html=1;fontSize=35;fontColor=#000000;strokeColor=#000000;strokeWidth=5;" parent="1" edge="1">
                    <mxGeometry width="50" height="50" relative="1" as="geometry">
                        <mxPoint x="506" y="561.5" as="sourcePoint"/>
                        <mxPoint x="601" y="561.5" as="targetPoint"/>
                    </mxGeometry>
                </mxCell>
                <mxCell id="34" value="&lt;span style=&quot;font-size: 35px;&quot;&gt;&lt;b&gt;,&lt;/b&gt;&lt;/span&gt;" style="text;html=1;align=center;verticalAlign=middle;resizable=0;points=[];autosize=1;strokeColor=none;fillColor=none;fontColor=#000000;" parent="1" vertex="1">
                    <mxGeometry x="276" y="535" width="28" height="54" as="geometry"/>
                </mxCell>
                <mxCell id="35" value="" style="rounded=0;whiteSpace=wrap;html=1;fontSize=22;fontColor=#FF6666;fillColor=none;strokeColor=#1BA1E2;strokeWidth=4;" parent="1" vertex="1">
                    <mxGeometry x="94" y="529" width="685" height="60" as="geometry"/>
                </mxCell>
                <mxCell id="36" value="&lt;font color=&quot;#ff6666&quot;&gt;&lt;span style=&quot;font-size: 22px;&quot;&gt;最后的channel-last的equation&lt;/span&gt;&lt;/font&gt;" style="text;html=1;align=left;verticalAlign=middle;resizable=0;points=[];autosize=1;strokeColor=none;fillColor=none;fontColor=#000000;" parent="1" vertex="1">
                    <mxGeometry x="799" y="543" width="309" height="38" as="geometry"/>
                </mxCell>
                <mxCell id="37" value="&lt;font size=&quot;1&quot;&gt;&lt;b style=&quot;font-size: 35px;&quot;&gt;(2,8,16,16)&lt;/b&gt;&lt;/font&gt;" style="text;html=1;align=center;verticalAlign=middle;resizable=0;points=[];autosize=1;strokeColor=none;fillColor=none;fontColor=#000000;" vertex="1" parent="1">
                    <mxGeometry x="173" y="834" width="187" height="54" as="geometry"/>
                </mxCell>
                <mxCell id="38" value="&lt;font size=&quot;1&quot;&gt;&lt;b style=&quot;font-size: 35px;&quot;&gt;(2,8,16,80)&lt;/b&gt;&lt;/font&gt;" style="text;html=1;align=center;verticalAlign=middle;resizable=0;points=[];autosize=1;strokeColor=none;fillColor=none;fontColor=#000000;" vertex="1" parent="1">
                    <mxGeometry x="383" y="834" width="187" height="54" as="geometry"/>
                </mxCell>
                <mxCell id="39" value="" style="endArrow=classic;html=1;fontSize=35;fontColor=#000000;strokeColor=#000000;strokeWidth=5;" edge="1" parent="1">
                    <mxGeometry width="50" height="50" relative="1" as="geometry">
                        <mxPoint x="577" y="860.5" as="sourcePoint"/>
                        <mxPoint x="672" y="860.5" as="targetPoint"/>
                    </mxGeometry>
                </mxCell>
                <mxCell id="40" value="&lt;font size=&quot;1&quot;&gt;&lt;b style=&quot;font-size: 35px;&quot;&gt;(2,8,16,80)&lt;/b&gt;&lt;/font&gt;" style="text;html=1;align=center;verticalAlign=middle;resizable=0;points=[];autosize=1;strokeColor=none;fillColor=none;fontColor=#000000;" vertex="1" parent="1">
                    <mxGeometry x="685" y="832" width="187" height="54" as="geometry"/>
                </mxCell>
                <mxCell id="41" value="&lt;span style=&quot;font-size: 35px;&quot;&gt;&lt;b&gt;&amp;nbsp; &amp;nbsp; i&amp;nbsp; j&amp;nbsp; k&amp;nbsp; m&lt;/b&gt;&lt;/span&gt;" style="text;html=1;align=center;verticalAlign=middle;resizable=0;points=[];autosize=1;strokeColor=none;fillColor=none;fontColor=#000000;" vertex="1" parent="1">
                    <mxGeometry x="154" y="886" width="185" height="54" as="geometry"/>
                </mxCell>
                <mxCell id="42" value="&lt;span style=&quot;font-size: 35px;&quot;&gt;&lt;b&gt;&amp;nbsp; &amp;nbsp; i&amp;nbsp; j&amp;nbsp; m&amp;nbsp; l&lt;/b&gt;&lt;/span&gt;" style="text;html=1;align=center;verticalAlign=middle;resizable=0;points=[];autosize=1;strokeColor=none;fillColor=none;fontColor=#000000;" vertex="1" parent="1">
                    <mxGeometry x="371" y="888" width="176" height="54" as="geometry"/>
                </mxCell>
                <mxCell id="43" value="&lt;span style=&quot;font-size: 35px;&quot;&gt;&lt;b&gt;&amp;nbsp; &amp;nbsp; i&amp;nbsp; j&amp;nbsp; k&amp;nbsp; l&lt;/b&gt;&lt;/span&gt;" style="text;html=1;align=center;verticalAlign=middle;resizable=0;points=[];autosize=1;strokeColor=none;fillColor=none;fontColor=#000000;" vertex="1" parent="1">
                    <mxGeometry x="680" y="886" width="164" height="54" as="geometry"/>
                </mxCell>
                <mxCell id="44" value="" style="endArrow=classic;html=1;fontSize=35;fontColor=#000000;strokeColor=#000000;strokeWidth=5;" edge="1" parent="1">
                    <mxGeometry width="50" height="50" relative="1" as="geometry">
                        <mxPoint x="585" y="914.5" as="sourcePoint"/>
                        <mxPoint x="680" y="914.5" as="targetPoint"/>
                    </mxGeometry>
                </mxCell>
                <mxCell id="45" value="&lt;span style=&quot;font-size: 35px;&quot;&gt;&lt;b&gt;,&lt;/b&gt;&lt;/span&gt;" style="text;html=1;align=center;verticalAlign=middle;resizable=0;points=[];autosize=1;strokeColor=none;fillColor=none;fontColor=#000000;" vertex="1" parent="1">
                    <mxGeometry x="355" y="888" width="28" height="54" as="geometry"/>
                </mxCell>
                <mxCell id="46" value="&lt;font color=&quot;#ff6666&quot; style=&quot;font-size: 22px;&quot;&gt;原先CHW的equation&lt;/font&gt;" style="text;html=1;align=center;verticalAlign=middle;resizable=0;points=[];autosize=1;strokeColor=none;fillColor=none;fontColor=#000000;" vertex="1" parent="1">
                    <mxGeometry x="177" y="796" width="221" height="38" as="geometry"/>
                </mxCell>
                <mxCell id="47" value="&lt;font color=&quot;#ff6666&quot;&gt;&lt;span style=&quot;font-size: 22px;&quot;&gt;channel-last要求将c移动到最后一维&lt;/span&gt;&lt;/font&gt;" style="text;html=1;align=left;verticalAlign=middle;resizable=0;points=[];autosize=1;strokeColor=none;fillColor=none;fontColor=#000000;" vertex="1" parent="1">
                    <mxGeometry x="177" y="942" width="368" height="38" as="geometry"/>
                </mxCell>
                <mxCell id="48" value="&lt;font size=&quot;1&quot;&gt;&lt;b style=&quot;font-size: 35px;&quot;&gt;(2,16,16,8)&lt;/b&gt;&lt;/font&gt;" style="text;html=1;align=center;verticalAlign=middle;resizable=0;points=[];autosize=1;strokeColor=none;fillColor=none;fontColor=#000000;" vertex="1" parent="1">
                    <mxGeometry x="173" y="982" width="187" height="54" as="geometry"/>
                </mxCell>
                <mxCell id="49" value="&lt;font size=&quot;1&quot;&gt;&lt;b style=&quot;font-size: 35px;&quot;&gt;(2,16,80,8)&lt;/b&gt;&lt;/font&gt;" style="text;html=1;align=center;verticalAlign=middle;resizable=0;points=[];autosize=1;strokeColor=none;fillColor=none;fontColor=#000000;" vertex="1" parent="1">
                    <mxGeometry x="383" y="982" width="187" height="54" as="geometry"/>
                </mxCell>
                <mxCell id="50" value="" style="endArrow=classic;html=1;fontSize=35;fontColor=#000000;strokeColor=#000000;strokeWidth=5;" edge="1" parent="1">
                    <mxGeometry width="50" height="50" relative="1" as="geometry">
                        <mxPoint x="577" y="1008.5" as="sourcePoint"/>
                        <mxPoint x="672" y="1008.5" as="targetPoint"/>
                    </mxGeometry>
                </mxCell>
                <mxCell id="51" value="&lt;font size=&quot;1&quot;&gt;&lt;b style=&quot;font-size: 35px;&quot;&gt;(2,16,80,8)&lt;/b&gt;&lt;/font&gt;" style="text;html=1;align=center;verticalAlign=middle;resizable=0;points=[];autosize=1;strokeColor=none;fillColor=none;fontColor=#000000;" vertex="1" parent="1">
                    <mxGeometry x="685" y="980" width="187" height="54" as="geometry"/>
                </mxCell>
                <mxCell id="52" value="&lt;span style=&quot;font-size: 35px;&quot;&gt;&lt;b&gt;&amp;nbsp; &amp;nbsp; i&amp;nbsp; k&amp;nbsp; m&amp;nbsp; j&lt;/b&gt;&lt;/span&gt;" style="text;html=1;align=center;verticalAlign=middle;resizable=0;points=[];autosize=1;strokeColor=none;fillColor=none;fontColor=#000000;" vertex="1" parent="1">
                    <mxGeometry x="154" y="1034" width="185" height="54" as="geometry"/>
                </mxCell>
                <mxCell id="53" value="&lt;span style=&quot;font-size: 35px;&quot;&gt;&lt;b&gt;&amp;nbsp; &amp;nbsp; i&amp;nbsp; m&amp;nbsp; l&amp;nbsp; j&lt;/b&gt;&lt;/span&gt;" style="text;html=1;align=center;verticalAlign=middle;resizable=0;points=[];autosize=1;strokeColor=none;fillColor=none;fontColor=#000000;" vertex="1" parent="1">
                    <mxGeometry x="371" y="1036" width="176" height="54" as="geometry"/>
                </mxCell>
                <mxCell id="54" value="&lt;span style=&quot;font-size: 35px;&quot;&gt;&lt;b&gt;&amp;nbsp; &amp;nbsp; i&amp;nbsp; k&amp;nbsp; l&amp;nbsp; j&lt;/b&gt;&lt;/span&gt;" style="text;html=1;align=center;verticalAlign=middle;resizable=0;points=[];autosize=1;strokeColor=none;fillColor=none;fontColor=#000000;" vertex="1" parent="1">
                    <mxGeometry x="680" y="1034" width="164" height="54" as="geometry"/>
                </mxCell>
                <mxCell id="55" value="" style="endArrow=classic;html=1;fontSize=35;fontColor=#000000;strokeColor=#000000;strokeWidth=5;" edge="1" parent="1">
                    <mxGeometry width="50" height="50" relative="1" as="geometry">
                        <mxPoint x="585" y="1062.5" as="sourcePoint"/>
                        <mxPoint x="680" y="1062.5" as="targetPoint"/>
                    </mxGeometry>
                </mxCell>
                <mxCell id="56" value="&lt;span style=&quot;font-size: 35px;&quot;&gt;&lt;b&gt;,&lt;/b&gt;&lt;/span&gt;" style="text;html=1;align=center;verticalAlign=middle;resizable=0;points=[];autosize=1;strokeColor=none;fillColor=none;fontColor=#000000;" vertex="1" parent="1">
                    <mxGeometry x="355" y="1036" width="28" height="54" as="geometry"/>
                </mxCell>
                <mxCell id="57" value="&lt;font color=&quot;#ff6666&quot;&gt;&lt;span style=&quot;font-size: 22px;&quot;&gt;因为目前实现的einsum算子要求箭头右边的字符串必须为ijkl，因此再做变换&lt;/span&gt;&lt;/font&gt;" style="text;html=1;align=left;verticalAlign=middle;resizable=0;points=[];autosize=1;strokeColor=none;fillColor=none;fontColor=#000000;" vertex="1" parent="1">
                    <mxGeometry x="177" y="1101" width="753" height="38" as="geometry"/>
                </mxCell>
                <mxCell id="58" value="&lt;span style=&quot;font-size: 35px;&quot;&gt;&lt;b&gt;&amp;nbsp; &amp;nbsp; i&amp;nbsp; k&amp;nbsp; m&amp;nbsp; j&lt;/b&gt;&lt;/span&gt;" style="text;html=1;align=center;verticalAlign=middle;resizable=0;points=[];autosize=1;strokeColor=none;fillColor=none;fontColor=#000000;" vertex="1" parent="1">
                    <mxGeometry x="154" y="1142" width="185" height="54" as="geometry"/>
                </mxCell>
                <mxCell id="59" value="&lt;span style=&quot;font-size: 35px;&quot;&gt;&lt;b&gt;&amp;nbsp; &amp;nbsp; i&amp;nbsp; m&amp;nbsp; l&amp;nbsp; j&lt;/b&gt;&lt;/span&gt;" style="text;html=1;align=center;verticalAlign=middle;resizable=0;points=[];autosize=1;strokeColor=none;fillColor=none;fontColor=#000000;" vertex="1" parent="1">
                    <mxGeometry x="371" y="1144" width="176" height="54" as="geometry"/>
                </mxCell>
                <mxCell id="60" value="&lt;span style=&quot;font-size: 35px;&quot;&gt;&lt;b&gt;&amp;nbsp; &amp;nbsp; i&amp;nbsp; k&amp;nbsp; l&amp;nbsp; j&lt;/b&gt;&lt;/span&gt;" style="text;html=1;align=center;verticalAlign=middle;resizable=0;points=[];autosize=1;strokeColor=none;fillColor=none;fontColor=#000000;" vertex="1" parent="1">
                    <mxGeometry x="680" y="1142" width="164" height="54" as="geometry"/>
                </mxCell>
                <mxCell id="61" value="" style="endArrow=classic;html=1;fontSize=35;fontColor=#000000;strokeColor=#000000;strokeWidth=5;" edge="1" parent="1">
                    <mxGeometry width="50" height="50" relative="1" as="geometry">
                        <mxPoint x="585" y="1170.5" as="sourcePoint"/>
                        <mxPoint x="680" y="1170.5" as="targetPoint"/>
                    </mxGeometry>
                </mxCell>
                <mxCell id="62" value="&lt;span style=&quot;font-size: 35px;&quot;&gt;&lt;b&gt;,&lt;/b&gt;&lt;/span&gt;" style="text;html=1;align=center;verticalAlign=middle;resizable=0;points=[];autosize=1;strokeColor=none;fillColor=none;fontColor=#000000;" vertex="1" parent="1">
                    <mxGeometry x="355" y="1144" width="28" height="54" as="geometry"/>
                </mxCell>
                <mxCell id="63" value="&lt;span style=&quot;font-size: 35px;&quot;&gt;&lt;b&gt;&amp;nbsp; &amp;nbsp; i&amp;nbsp; j&amp;nbsp; m&amp;nbsp; l&lt;/b&gt;&lt;/span&gt;" style="text;html=1;align=center;verticalAlign=middle;resizable=0;points=[];autosize=1;strokeColor=none;fillColor=none;fontColor=#000000;" vertex="1" parent="1">
                    <mxGeometry x="159" y="1204" width="176" height="54" as="geometry"/>
                </mxCell>
                <mxCell id="64" value="&lt;span style=&quot;font-size: 35px;&quot;&gt;&lt;b&gt;&amp;nbsp; &amp;nbsp; i&amp;nbsp; m&amp;nbsp; k&amp;nbsp; l&lt;/b&gt;&lt;/span&gt;" style="text;html=1;align=center;verticalAlign=middle;resizable=0;points=[];autosize=1;strokeColor=none;fillColor=none;fontColor=#000000;" vertex="1" parent="1">
                    <mxGeometry x="367" y="1206" width="185" height="54" as="geometry"/>
                </mxCell>
                <mxCell id="65" value="&lt;span style=&quot;font-size: 35px;&quot;&gt;&lt;b&gt;&amp;nbsp; &amp;nbsp; i&amp;nbsp; j&amp;nbsp; k&amp;nbsp; l&lt;/b&gt;&lt;/span&gt;" style="text;html=1;align=center;verticalAlign=middle;resizable=0;points=[];autosize=1;strokeColor=none;fillColor=none;fontColor=#000000;" vertex="1" parent="1">
                    <mxGeometry x="680" y="1204" width="164" height="54" as="geometry"/>
                </mxCell>
                <mxCell id="66" value="" style="endArrow=classic;html=1;fontSize=35;fontColor=#000000;strokeColor=#000000;strokeWidth=5;" edge="1" parent="1">
                    <mxGeometry width="50" height="50" relative="1" as="geometry">
                        <mxPoint x="585" y="1232.5" as="sourcePoint"/>
                        <mxPoint x="680" y="1232.5" as="targetPoint"/>
                    </mxGeometry>
                </mxCell>
                <mxCell id="67" value="&lt;span style=&quot;font-size: 35px;&quot;&gt;&lt;b&gt;,&lt;/b&gt;&lt;/span&gt;" style="text;html=1;align=center;verticalAlign=middle;resizable=0;points=[];autosize=1;strokeColor=none;fillColor=none;fontColor=#000000;" vertex="1" parent="1">
                    <mxGeometry x="355" y="1206" width="28" height="54" as="geometry"/>
                </mxCell>
                <mxCell id="69" value="&lt;font color=&quot;#ff6666&quot;&gt;&lt;span style=&quot;font-size: 22px;&quot;&gt;最后的channel-last的equation&lt;/span&gt;&lt;/font&gt;" style="text;html=1;align=left;verticalAlign=middle;resizable=0;points=[];autosize=1;strokeColor=none;fillColor=none;fontColor=#000000;" vertex="1" parent="1">
                    <mxGeometry x="878" y="1214" width="309" height="38" as="geometry"/>
                </mxCell>
                <mxCell id="70" value="" style="rounded=0;whiteSpace=wrap;html=1;fontSize=22;fontColor=#FF6666;fillColor=none;strokeColor=#1BA1E2;strokeWidth=4;" vertex="1" parent="1">
                    <mxGeometry x="196" y="1780" width="685" height="60" as="geometry"/>
                </mxCell>
                <mxCell id="71" value="&lt;font size=&quot;1&quot;&gt;&lt;b style=&quot;font-size: 35px;&quot;&gt;(2,14,14,80)&lt;/b&gt;&lt;/font&gt;" style="text;html=1;align=center;verticalAlign=middle;resizable=0;points=[];autosize=1;strokeColor=none;fillColor=none;fontColor=#000000;" vertex="1" parent="1">
                    <mxGeometry x="186" y="1414" width="207" height="54" as="geometry"/>
                </mxCell>
                <mxCell id="72" value="&lt;font size=&quot;1&quot;&gt;&lt;b style=&quot;font-size: 35px;&quot;&gt;(14,14,80)&lt;/b&gt;&lt;/font&gt;" style="text;html=1;align=center;verticalAlign=middle;resizable=0;points=[];autosize=1;strokeColor=none;fillColor=none;fontColor=#000000;" vertex="1" parent="1">
                    <mxGeometry x="411" y="1414" width="178" height="54" as="geometry"/>
                </mxCell>
                <mxCell id="73" value="" style="endArrow=classic;html=1;fontSize=35;fontColor=#000000;strokeColor=#000000;strokeWidth=5;" edge="1" parent="1">
                    <mxGeometry width="50" height="50" relative="1" as="geometry">
                        <mxPoint x="600" y="1440.5" as="sourcePoint"/>
                        <mxPoint x="695" y="1440.5" as="targetPoint"/>
                    </mxGeometry>
                </mxCell>
                <mxCell id="74" value="&lt;font size=&quot;1&quot;&gt;&lt;b style=&quot;font-size: 35px;&quot;&gt;(2,14,14,80)&lt;/b&gt;&lt;/font&gt;" style="text;html=1;align=center;verticalAlign=middle;resizable=0;points=[];autosize=1;strokeColor=none;fillColor=none;fontColor=#000000;" vertex="1" parent="1">
                    <mxGeometry x="698" y="1412" width="207" height="54" as="geometry"/>
                </mxCell>
                <mxCell id="75" value="&lt;span style=&quot;font-size: 35px;&quot;&gt;&lt;b&gt;&amp;nbsp; &amp;nbsp; i&amp;nbsp; j&amp;nbsp; k&amp;nbsp; m&lt;/b&gt;&lt;/span&gt;" style="text;html=1;align=center;verticalAlign=middle;resizable=0;points=[];autosize=1;strokeColor=none;fillColor=none;fontColor=#000000;" vertex="1" parent="1">
                    <mxGeometry x="177" y="1466" width="185" height="54" as="geometry"/>
                </mxCell>
                <mxCell id="76" value="&lt;span style=&quot;font-size: 35px;&quot;&gt;&lt;b&gt;&amp;nbsp; &amp;nbsp; j&amp;nbsp; l&amp;nbsp; m&lt;/b&gt;&lt;/span&gt;" style="text;html=1;align=left;verticalAlign=middle;resizable=0;points=[];autosize=1;strokeColor=none;fillColor=none;fontColor=#000000;" vertex="1" parent="1">
                    <mxGeometry x="424" y="1468" width="146" height="54" as="geometry"/>
                </mxCell>
                <mxCell id="77" value="&lt;span style=&quot;font-size: 35px;&quot;&gt;&lt;b&gt;&amp;nbsp; &amp;nbsp; i&amp;nbsp; j&amp;nbsp; k&amp;nbsp; l&lt;/b&gt;&lt;/span&gt;" style="text;html=1;align=center;verticalAlign=middle;resizable=0;points=[];autosize=1;strokeColor=none;fillColor=none;fontColor=#000000;" vertex="1" parent="1">
                    <mxGeometry x="703" y="1466" width="164" height="54" as="geometry"/>
                </mxCell>
                <mxCell id="78" value="" style="endArrow=classic;html=1;fontSize=35;fontColor=#000000;strokeColor=#000000;strokeWidth=5;" edge="1" parent="1">
                    <mxGeometry width="50" height="50" relative="1" as="geometry">
                        <mxPoint x="608" y="1494.5" as="sourcePoint"/>
                        <mxPoint x="703" y="1494.5" as="targetPoint"/>
                    </mxGeometry>
                </mxCell>
                <mxCell id="79" value="&lt;span style=&quot;font-size: 35px;&quot;&gt;&lt;b&gt;,&lt;/b&gt;&lt;/span&gt;" style="text;html=1;align=center;verticalAlign=middle;resizable=0;points=[];autosize=1;strokeColor=none;fillColor=none;fontColor=#000000;" vertex="1" parent="1">
                    <mxGeometry x="378" y="1468" width="28" height="54" as="geometry"/>
                </mxCell>
                <mxCell id="80" value="&lt;font color=&quot;#ff6666&quot; style=&quot;font-size: 22px;&quot;&gt;原先CHW的equation&lt;/font&gt;" style="text;html=1;align=center;verticalAlign=middle;resizable=0;points=[];autosize=1;strokeColor=none;fillColor=none;fontColor=#000000;" vertex="1" parent="1">
                    <mxGeometry x="200" y="1376" width="221" height="38" as="geometry"/>
                </mxCell>
                <mxCell id="81" value="&lt;font color=&quot;#ff6666&quot;&gt;&lt;span style=&quot;font-size: 22px;&quot;&gt;channel-last要求将c移动到最后一维&lt;/span&gt;&lt;/font&gt;" style="text;html=1;align=left;verticalAlign=middle;resizable=0;points=[];autosize=1;strokeColor=none;fillColor=none;fontColor=#000000;" vertex="1" parent="1">
                    <mxGeometry x="200" y="1522" width="368" height="38" as="geometry"/>
                </mxCell>
                <mxCell id="82" value="&lt;font size=&quot;1&quot;&gt;&lt;b style=&quot;font-size: 35px;&quot;&gt;(2,14,80,14)&lt;/b&gt;&lt;/font&gt;" style="text;html=1;align=center;verticalAlign=middle;resizable=0;points=[];autosize=1;strokeColor=none;fillColor=none;fontColor=#000000;" vertex="1" parent="1">
                    <mxGeometry x="186" y="1562" width="207" height="54" as="geometry"/>
                </mxCell>
                <mxCell id="83" value="&lt;font size=&quot;1&quot;&gt;&lt;b style=&quot;font-size: 35px;&quot;&gt;(14,80,14)&lt;/b&gt;&lt;/font&gt;" style="text;html=1;align=center;verticalAlign=middle;resizable=0;points=[];autosize=1;strokeColor=none;fillColor=none;fontColor=#000000;" vertex="1" parent="1">
                    <mxGeometry x="411" y="1562" width="178" height="54" as="geometry"/>
                </mxCell>
                <mxCell id="84" value="" style="endArrow=classic;html=1;fontSize=35;fontColor=#000000;strokeColor=#000000;strokeWidth=5;" edge="1" parent="1">
                    <mxGeometry width="50" height="50" relative="1" as="geometry">
                        <mxPoint x="600" y="1588.5000000000002" as="sourcePoint"/>
                        <mxPoint x="695" y="1588.5000000000002" as="targetPoint"/>
                    </mxGeometry>
                </mxCell>
                <mxCell id="85" value="&lt;font size=&quot;1&quot;&gt;&lt;b style=&quot;font-size: 35px;&quot;&gt;(2,14,80,14)&lt;/b&gt;&lt;/font&gt;" style="text;html=1;align=center;verticalAlign=middle;resizable=0;points=[];autosize=1;strokeColor=none;fillColor=none;fontColor=#000000;" vertex="1" parent="1">
                    <mxGeometry x="698" y="1560" width="207" height="54" as="geometry"/>
                </mxCell>
                <mxCell id="86" value="&lt;span style=&quot;font-size: 35px;&quot;&gt;&lt;b&gt;&amp;nbsp; &amp;nbsp; i&amp;nbsp; k&amp;nbsp; m&amp;nbsp; j&lt;/b&gt;&lt;/span&gt;" style="text;html=1;align=center;verticalAlign=middle;resizable=0;points=[];autosize=1;strokeColor=none;fillColor=none;fontColor=#000000;" vertex="1" parent="1">
                    <mxGeometry x="177" y="1614" width="185" height="54" as="geometry"/>
                </mxCell>
                <mxCell id="87" value="&lt;span style=&quot;font-size: 35px;&quot;&gt;&lt;b&gt;l&amp;nbsp; m&amp;nbsp; j&lt;/b&gt;&lt;/span&gt;" style="text;html=1;align=left;verticalAlign=middle;resizable=0;points=[];autosize=1;strokeColor=none;fillColor=none;fontColor=#000000;" vertex="1" parent="1">
                    <mxGeometry x="461" y="1616" width="107" height="54" as="geometry"/>
                </mxCell>
                <mxCell id="88" value="&lt;span style=&quot;font-size: 35px;&quot;&gt;&lt;b&gt;&amp;nbsp; &amp;nbsp; i&amp;nbsp; k&amp;nbsp; l&amp;nbsp; j&lt;/b&gt;&lt;/span&gt;" style="text;html=1;align=center;verticalAlign=middle;resizable=0;points=[];autosize=1;strokeColor=none;fillColor=none;fontColor=#000000;" vertex="1" parent="1">
                    <mxGeometry x="703" y="1614" width="164" height="54" as="geometry"/>
                </mxCell>
                <mxCell id="89" value="" style="endArrow=classic;html=1;fontSize=35;fontColor=#000000;strokeColor=#000000;strokeWidth=5;" edge="1" parent="1">
                    <mxGeometry width="50" height="50" relative="1" as="geometry">
                        <mxPoint x="608" y="1642.5" as="sourcePoint"/>
                        <mxPoint x="703" y="1642.5" as="targetPoint"/>
                    </mxGeometry>
                </mxCell>
                <mxCell id="90" value="&lt;span style=&quot;font-size: 35px;&quot;&gt;&lt;b&gt;,&lt;/b&gt;&lt;/span&gt;" style="text;html=1;align=center;verticalAlign=middle;resizable=0;points=[];autosize=1;strokeColor=none;fillColor=none;fontColor=#000000;" vertex="1" parent="1">
                    <mxGeometry x="378" y="1616" width="28" height="54" as="geometry"/>
                </mxCell>
                <mxCell id="91" value="&lt;font color=&quot;#ff6666&quot;&gt;&lt;span style=&quot;font-size: 22px;&quot;&gt;因为目前实现的einsum算子要求箭头右边的字符串必须为ijkl，因此再做变换&lt;/span&gt;&lt;/font&gt;" style="text;html=1;align=left;verticalAlign=middle;resizable=0;points=[];autosize=1;strokeColor=none;fillColor=none;fontColor=#000000;" vertex="1" parent="1">
                    <mxGeometry x="200" y="1681" width="753" height="38" as="geometry"/>
                </mxCell>
                <mxCell id="92" value="&lt;span style=&quot;font-size: 35px;&quot;&gt;&lt;b&gt;&amp;nbsp; &amp;nbsp; i&amp;nbsp; k&amp;nbsp; m&amp;nbsp; j&lt;/b&gt;&lt;/span&gt;" style="text;html=1;align=center;verticalAlign=middle;resizable=0;points=[];autosize=1;strokeColor=none;fillColor=none;fontColor=#000000;" vertex="1" parent="1">
                    <mxGeometry x="177" y="1722" width="185" height="54" as="geometry"/>
                </mxCell>
                <mxCell id="93" value="&lt;span style=&quot;font-size: 35px;&quot;&gt;&lt;b&gt;l&amp;nbsp; m&amp;nbsp; j&lt;/b&gt;&lt;/span&gt;" style="text;html=1;align=center;verticalAlign=middle;resizable=0;points=[];autosize=1;strokeColor=none;fillColor=none;fontColor=#000000;" vertex="1" parent="1">
                    <mxGeometry x="453" y="1722" width="107" height="54" as="geometry"/>
                </mxCell>
                <mxCell id="94" value="&lt;span style=&quot;font-size: 35px;&quot;&gt;&lt;b&gt;&amp;nbsp; &amp;nbsp; i&amp;nbsp; k&amp;nbsp; l&amp;nbsp; j&lt;/b&gt;&lt;/span&gt;" style="text;html=1;align=center;verticalAlign=middle;resizable=0;points=[];autosize=1;strokeColor=none;fillColor=none;fontColor=#000000;" vertex="1" parent="1">
                    <mxGeometry x="703" y="1722" width="164" height="54" as="geometry"/>
                </mxCell>
                <mxCell id="95" value="" style="endArrow=classic;html=1;fontSize=35;fontColor=#000000;strokeColor=#000000;strokeWidth=5;" edge="1" parent="1">
                    <mxGeometry width="50" height="50" relative="1" as="geometry">
                        <mxPoint x="608" y="1750.5" as="sourcePoint"/>
                        <mxPoint x="703" y="1750.5" as="targetPoint"/>
                    </mxGeometry>
                </mxCell>
                <mxCell id="96" value="&lt;span style=&quot;font-size: 35px;&quot;&gt;&lt;b&gt;,&lt;/b&gt;&lt;/span&gt;" style="text;html=1;align=center;verticalAlign=middle;resizable=0;points=[];autosize=1;strokeColor=none;fillColor=none;fontColor=#000000;" vertex="1" parent="1">
                    <mxGeometry x="378" y="1724" width="28" height="54" as="geometry"/>
                </mxCell>
                <mxCell id="97" value="&lt;span style=&quot;font-size: 35px;&quot;&gt;&lt;b&gt;&amp;nbsp; &amp;nbsp; i&amp;nbsp; j&amp;nbsp; m&amp;nbsp; l&lt;/b&gt;&lt;/span&gt;" style="text;html=1;align=center;verticalAlign=middle;resizable=0;points=[];autosize=1;strokeColor=none;fillColor=none;fontColor=#000000;" vertex="1" parent="1">
                    <mxGeometry x="182" y="1784" width="176" height="54" as="geometry"/>
                </mxCell>
                <mxCell id="98" value="&lt;span style=&quot;font-size: 35px;&quot;&gt;&lt;b&gt;k&amp;nbsp; m&amp;nbsp; l&lt;/b&gt;&lt;/span&gt;" style="text;html=1;align=left;verticalAlign=middle;resizable=0;points=[];autosize=1;strokeColor=none;fillColor=none;fontColor=#000000;" vertex="1" parent="1">
                    <mxGeometry x="448" y="1786" width="117" height="54" as="geometry"/>
                </mxCell>
                <mxCell id="99" value="&lt;span style=&quot;font-size: 35px;&quot;&gt;&lt;b&gt;&amp;nbsp; &amp;nbsp; i&amp;nbsp; j&amp;nbsp; k&amp;nbsp; l&lt;/b&gt;&lt;/span&gt;" style="text;html=1;align=center;verticalAlign=middle;resizable=0;points=[];autosize=1;strokeColor=none;fillColor=none;fontColor=#000000;" vertex="1" parent="1">
                    <mxGeometry x="703" y="1784" width="164" height="54" as="geometry"/>
                </mxCell>
                <mxCell id="100" value="" style="endArrow=classic;html=1;fontSize=35;fontColor=#000000;strokeColor=#000000;strokeWidth=5;" edge="1" parent="1">
                    <mxGeometry width="50" height="50" relative="1" as="geometry">
                        <mxPoint x="608" y="1812.5" as="sourcePoint"/>
                        <mxPoint x="703" y="1812.5" as="targetPoint"/>
                    </mxGeometry>
                </mxCell>
                <mxCell id="101" value="&lt;span style=&quot;font-size: 35px;&quot;&gt;&lt;b&gt;,&lt;/b&gt;&lt;/span&gt;" style="text;html=1;align=center;verticalAlign=middle;resizable=0;points=[];autosize=1;strokeColor=none;fillColor=none;fontColor=#000000;" vertex="1" parent="1">
                    <mxGeometry x="378" y="1786" width="28" height="54" as="geometry"/>
                </mxCell>
                <mxCell id="102" value="&lt;font color=&quot;#ff6666&quot;&gt;&lt;span style=&quot;font-size: 22px;&quot;&gt;最后的channel-last的equation&lt;/span&gt;&lt;/font&gt;" style="text;html=1;align=left;verticalAlign=middle;resizable=0;points=[];autosize=1;strokeColor=none;fillColor=none;fontColor=#000000;" vertex="1" parent="1">
                    <mxGeometry x="901" y="1794" width="309" height="38" as="geometry"/>
                </mxCell>
            </root>
        </mxGraphModel>
    </diagram>
</mxfile>